<?xml version="1.0" standalone="no"?>
<!DOCTYPE svg PUBLIC "-//W3C//DTD SVG 20010904//EN"
 "http://www.w3.org/TR/2001/REC-SVG-20010904/DTD/svg10.dtd">
<svg version="1.0" xmlns="http://www.w3.org/2000/svg"
 width="1080.000000pt" height="1080.000000pt" viewBox="0 0 1080.000000 1080.000000"
 preserveAspectRatio="xMidYMid meet">

<g transform="translate(0.000000,1080.000000) scale(0.100000,-0.100000)"
fill="#000000" stroke="none">
<path d="M6995 9862 c-22 -9 -65 -31 -95 -48 -30 -17 -100 -55 -155 -84 -55
-29 -147 -79 -205 -110 -128 -70 -226 -122 -345 -185 -49 -26 -114 -60 -142
-76 -99 -54 -158 -86 -228 -124 -106 -57 -140 -94 -156 -165 -4 -19 -15 -64
-24 -100 -15 -64 -31 -133 -95 -415 -18 -77 -34 -146 -36 -152 -3 -10 -115
-13 -516 -13 -528 0 -668 -8 -818 -45 -372 -91 -698 -318 -905 -630 -74 -111
-137 -241 -180 -368 -42 -125 -52 -177 -68 -337 l-12 -115 -208 -3 c-203 -2
-209 -3 -246 -28 -49 -32 -61 -60 -61 -140 0 -171 104 -356 258 -457 86 -57
162 -82 287 -97 131 -15 4561 -8 4645 7 268 50 473 284 474 545 1 79 -1 89
-24 113 -49 52 -63 55 -285 55 l-205 0 0 43 c-1 39 -19 170 -38 277 -13 68
-77 246 -116 325 -90 177 -152 263 -300 410 -132 132 -235 206 -392 284 -233
115 -449 160 -766 161 -140 0 -148 1 -148 20 0 10 4 29 9 42 5 13 19 68 31
123 12 55 26 116 30 135 5 19 14 58 20 85 31 137 15 121 215 225 66 35 125 66
130 70 6 4 62 34 125 67 63 33 135 72 160 85 95 53 158 87 235 128 44 23 107
57 140 75 33 18 85 46 116 63 90 48 104 59 128 103 19 33 22 52 19 99 -9 129
-133 203 -253 152z m-1555 -1760 c0 -17 -25 -136 -62 -287 -5 -22 -13 -58 -18
-80 -4 -22 -18 -80 -30 -130 -11 -49 -25 -108 -30 -130 -5 -22 -13 -58 -18
-80 -18 -74 -33 -140 -42 -185 -5 -25 -19 -83 -30 -130 -12 -47 -25 -103 -29
-125 -4 -23 -11 -46 -15 -53 -5 -9 -220 -12 -943 -12 l-936 0 6 95 c23 352
233 710 535 914 87 59 225 127 319 156 72 23 104 30 253 54 30 5 277 9 548 10
462 1 492 0 492 -17z m840 4 c103 -14 215 -38 255 -55 11 -5 47 -19 80 -32
283 -109 561 -391 674 -684 13 -33 27 -69 31 -80 18 -42 49 -213 52 -285 l3
-75 -912 -3 -913 -2 0 20 c0 12 7 49 15 83 8 34 28 123 45 197 17 74 37 162
45 195 8 33 23 101 35 150 11 50 24 106 29 125 5 19 19 80 31 135 12 55 26
114 30 130 5 17 14 55 20 85 6 30 16 67 22 83 l10 27 172 0 c94 0 218 -6 276
-14z m1575 -1505 c0 -40 -94 -120 -174 -148 -29 -10 -509 -13 -2346 -13 -2237
0 -2312 1 -2362 19 -82 30 -163 102 -163 145 0 15 217 16 2523 14 2112 -3
2522 -5 2522 -17z"/>
<path d="M3213 5960 c-61 -37 -72 -85 -53 -230 5 -41 19 -165 30 -275 11 -110
24 -238 30 -285 5 -47 19 -175 30 -285 28 -283 49 -475 61 -580 6 -50 12 -124
13 -164 1 -72 0 -74 -29 -90 -97 -54 -318 -101 -477 -101 -171 0 -261 25 -365
103 -55 41 -88 45 -107 15 -15 -24 25 -64 149 -147 252 -168 513 -298 775
-386 63 -21 117 -40 119 -42 6 -4 19 -101 31 -233 5 -58 19 -190 30 -295 12
-104 25 -233 30 -285 9 -94 20 -198 41 -387 6 -54 14 -138 19 -188 19 -213 41
-414 50 -466 5 -30 10 -77 10 -105 1 -52 23 -216 38 -274 52 -202 235 -398
437 -468 124 -43 132 -43 1290 -40 1022 3 1115 5 1170 21 183 53 348 186 434
347 54 102 74 186 91 385 5 55 13 138 19 185 5 47 17 157 26 245 9 88 23 219
30 290 8 72 22 200 30 285 9 85 20 193 26 240 6 47 14 128 19 180 15 169 40
403 51 485 l12 80 104 34 c234 76 521 217 758 372 142 92 190 137 180 168 -10
32 -48 26 -102 -15 -43 -33 -71 -48 -138 -75 -78 -31 -297 -38 -420 -14 -184
37 -310 80 -322 110 -2 8 3 79 12 157 9 79 21 184 25 233 11 117 27 265 40
390 7 55 15 141 20 190 11 113 28 273 41 390 12 102 26 253 35 370 5 73 4 83
-18 115 -13 19 -35 40 -48 47 -20 10 -462 13 -2110 13 -2050 0 -2086 0 -2117
-20z m4013 -294 c-4 -25 -11 -91 -16 -148 -5 -57 -13 -141 -19 -188 -6 -47
-17 -155 -26 -240 -8 -85 -22 -213 -30 -285 -8 -71 -22 -206 -31 -300 -9 -93
-19 -192 -23 -218 l-6 -49 -105 70 c-168 112 -345 192 -475 214 -250 42 -427
32 -629 -34 -175 -57 -306 -139 -443 -275 l-92 -91 -93 93 c-166 165 -363 269
-598 314 -182 35 -428 18 -603 -42 -106 -37 -218 -95 -333 -172 -106 -72 -124
-73 -124 -6 0 20 -7 99 -16 176 -8 77 -19 183 -24 235 -5 52 -13 139 -19 193
-22 199 -32 294 -41 387 -5 52 -16 158 -24 235 -9 77 -16 148 -16 158 0 16 97
17 1896 17 l1896 0 -6 -44z m-1846 -1991 c92 -77 218 -139 395 -195 147 -46
186 -55 295 -70 47 -6 107 -15 133 -21 62 -12 475 -12 530 0 62 14 246 35 252
29 5 -5 -15 -238 -35 -393 -5 -44 -12 -109 -15 -145 -3 -36 -10 -103 -16 -150
-5 -47 -14 -130 -19 -185 -21 -216 -30 -294 -40 -385 -7 -52 -16 -138 -21
-190 -11 -123 -26 -272 -39 -385 -6 -49 -13 -121 -16 -160 -6 -73 -7 -80 -43
-159 -43 -95 -127 -173 -231 -215 l-55 -21 -1135 2 -1135 3 -60 30 c-105 52
-189 152 -227 270 -6 17 -14 71 -18 120 -8 84 -13 128 -41 383 -6 53 -14 140
-19 192 -8 90 -18 181 -41 385 -5 50 -14 133 -19 185 -5 52 -14 142 -20 200
-23 216 -32 297 -40 385 -4 50 -11 123 -16 164 l-7 74 59 -7 c32 -5 88 -12
124 -18 109 -16 504 -22 600 -8 229 32 261 39 431 91 148 45 277 108 369 178
36 28 68 50 72 51 3 0 25 -16 48 -35z"/>
<path d="M4465 2612 c-38 -24 -50 -39 -64 -83 -10 -30 -9 -44 5 -78 23 -58 59
-81 128 -81 50 0 59 3 96 38 37 36 40 43 40 90 0 47 -4 56 -40 92 -35 35 -45
40 -87 40 -29 0 -60 -7 -78 -18z"/>
<path d="M5406 2610 c-52 -26 -64 -38 -87 -81 -24 -48 -24 -79 1 -132 30 -64
80 -92 161 -92 56 0 71 4 101 27 68 52 85 130 46 208 -41 79 -140 110 -222 70z"/>
<path d="M6005 2492 c-46 -7 -73 -25 -93 -61 -28 -49 -27 -76 1 -126 53 -93
184 -100 237 -12 60 97 -29 219 -145 199z"/>
<path d="M4921 2357 c-51 -16 -107 -75 -121 -126 -43 -162 169 -290 296 -178
47 41 64 77 64 135 0 83 -45 143 -129 171 -40 13 -64 13 -110 -2z"/>
<path d="M6483 2306 c-72 -34 -103 -82 -103 -161 0 -79 31 -127 103 -161 66
-30 91 -30 154 1 69 35 103 87 103 157 0 81 -37 134 -115 168 -60 26 -79 25
-142 -4z"/>
<path d="M4190 2184 c-131 -57 -160 -213 -58 -311 128 -123 334 -4 303 175
-12 75 -104 152 -180 151 -16 0 -46 -7 -65 -15z"/>
<path d="M5415 2038 c-74 -40 -102 -114 -70 -182 45 -94 160 -111 237 -34 33
33 38 44 38 83 0 58 -20 97 -63 124 -38 23 -109 28 -142 9z"/>
<path d="M5883 1989 c-43 -13 -113 -93 -115 -133 -4 -83 11 -124 59 -167 54
-47 123 -61 184 -35 81 34 119 88 119 168 0 125 -118 204 -247 167z"/>
<path d="M4912 1762 c-38 -12 -93 -63 -113 -106 -44 -96 -2 -213 96 -263 71
-37 189 -8 238 59 32 44 51 110 43 145 -33 131 -142 200 -264 165z"/>
<path d="M6244 1642 c-69 -22 -114 -87 -114 -167 0 -105 61 -167 170 -173 58
-3 70 0 111 26 49 32 89 99 89 149 0 16 -14 52 -30 80 -23 40 -41 57 -75 73
-43 20 -108 25 -151 12z"/>
<path d="M5492 1561 c-69 -24 -107 -61 -132 -130 -19 -49 -20 -60 -8 -104 37
-145 227 -201 340 -99 66 60 88 125 67 199 -15 56 -84 128 -131 137 -18 3 -44
8 -58 11 -14 2 -49 -4 -78 -14z"/>
<path d="M4305 1541 c-82 -48 -116 -161 -75 -246 74 -153 297 -134 341 28 22
84 -7 163 -79 208 -37 23 -56 29 -101 28 -34 0 -68 -7 -86 -18z"/>
</g>
</svg>
