<svg width="1622" height="733" viewBox="0 0 1622 733" fill="none" xmlns="http://www.w3.org/2000/svg">
<g clip-path="url(#clip0_2002_3)">
<path d="M475.378 402V271.091H503.055V379.18H559.178V402H475.378ZM604.993 403.854C598.728 403.854 593.146 402.767 588.245 400.594C583.345 398.378 579.467 395.118 576.612 390.814C573.799 386.467 572.393 381.055 572.393 374.578C572.393 369.124 573.395 364.543 575.397 360.835C577.4 357.128 580.127 354.145 583.579 351.886C587.031 349.628 590.951 347.923 595.341 346.773C599.772 345.622 604.417 344.812 609.275 344.344C614.985 343.747 619.588 343.193 623.082 342.682C626.576 342.128 629.112 341.318 630.689 340.253C632.265 339.187 633.054 337.611 633.054 335.523V335.139C633.054 331.091 631.775 327.959 629.218 325.743C626.704 323.527 623.125 322.419 618.48 322.419C613.579 322.419 609.68 323.506 606.782 325.679C603.885 327.81 601.967 330.494 601.029 333.733L575.845 331.688C577.123 325.722 579.637 320.565 583.387 316.219C587.137 311.83 591.974 308.463 597.897 306.119C603.863 303.733 610.767 302.54 618.608 302.54C624.062 302.54 629.282 303.179 634.268 304.457C639.297 305.736 643.75 307.717 647.627 310.402C651.548 313.087 654.637 316.538 656.896 320.757C659.154 324.933 660.284 329.94 660.284 335.778V402H634.46V388.385H633.693C632.116 391.453 630.007 394.159 627.365 396.503C624.723 398.804 621.548 400.615 617.841 401.936C614.133 403.214 609.85 403.854 604.993 403.854ZM612.791 385.061C616.797 385.061 620.333 384.273 623.402 382.696C626.47 381.077 628.877 378.903 630.625 376.176C632.372 373.449 633.245 370.359 633.245 366.908V356.489C632.393 357.043 631.221 357.554 629.73 358.023C628.281 358.449 626.64 358.854 624.808 359.237C622.975 359.578 621.143 359.898 619.311 360.196C617.478 360.452 615.816 360.686 614.325 360.899C611.129 361.368 608.338 362.114 605.951 363.136C603.565 364.159 601.711 365.544 600.39 367.291C599.069 368.996 598.409 371.126 598.409 373.683C598.409 377.391 599.751 380.224 602.436 382.185C605.163 384.102 608.615 385.061 612.791 385.061ZM718.595 293.911V271.091H826.109V293.911H786.031V402H758.673V293.911H718.595ZM873.81 403.918C863.711 403.918 855.017 401.872 847.73 397.781C840.486 393.648 834.904 387.81 830.983 380.267C827.063 372.682 825.103 363.712 825.103 353.357C825.103 343.257 827.063 334.393 830.983 326.766C834.904 319.138 840.422 313.193 847.539 308.932C854.698 304.67 863.093 302.54 872.723 302.54C879.201 302.54 885.23 303.584 890.813 305.672C896.438 307.717 901.338 310.807 905.515 314.94C909.733 319.074 913.015 324.273 915.358 330.537C917.702 336.759 918.874 344.045 918.874 352.398V359.876H835.969V343.001H893.242C893.242 339.081 892.39 335.608 890.685 332.582C888.98 329.557 886.615 327.192 883.59 325.487C880.607 323.74 877.134 322.866 873.171 322.866C869.037 322.866 865.373 323.825 862.176 325.743C859.023 327.618 856.551 330.153 854.762 333.349C852.972 336.503 852.056 340.018 852.013 343.896V359.94C852.013 364.798 852.908 368.996 854.698 372.533C856.53 376.07 859.108 378.797 862.432 380.714C865.756 382.632 869.698 383.591 874.257 383.591C877.283 383.591 880.053 383.165 882.567 382.312C885.081 381.46 887.233 380.182 889.023 378.477C890.813 376.773 892.176 374.685 893.114 372.213L918.299 373.875C917.02 379.926 914.4 385.21 910.436 389.727C906.516 394.202 901.445 397.696 895.223 400.21C889.044 402.682 881.907 403.918 873.81 403.918ZM862.304 291.162L875.855 262.078H901.04L881.544 291.162H862.304ZM1001.52 438.818V386.276H1000.69C999.414 389.003 997.603 391.709 995.259 394.393C992.958 397.036 989.953 399.23 986.246 400.977C982.581 402.724 978.107 403.598 972.823 403.598C965.365 403.598 958.611 401.68 952.56 397.845C946.551 393.967 941.779 388.278 938.242 380.778C934.748 373.236 933 363.989 933 353.037C933 341.787 934.811 332.433 938.434 324.976C942.056 317.476 946.871 311.872 952.88 308.165C958.931 304.415 965.557 302.54 972.759 302.54C978.256 302.54 982.837 303.477 986.502 305.352C990.209 307.185 993.192 309.486 995.451 312.256C997.752 314.983 999.499 317.668 1000.69 320.31H1001.84V303.818H1028.69V438.818H1001.52ZM981.452 381.929C985.841 381.929 989.549 380.736 992.574 378.349C995.642 375.92 997.986 372.533 999.605 368.186C1001.27 363.839 1002.1 358.747 1002.1 352.909C1002.1 347.071 1001.29 342 999.669 337.696C998.05 333.392 995.706 330.068 992.638 327.724C989.57 325.381 985.841 324.209 981.452 324.209C976.978 324.209 973.206 325.423 970.138 327.852C967.07 330.281 964.748 333.648 963.171 337.952C961.594 342.256 960.806 347.241 960.806 352.909C960.806 358.619 961.594 363.669 963.171 368.058C964.79 372.405 967.113 375.814 970.138 378.286C973.206 380.714 976.978 381.929 981.452 381.929ZM1113.51 360.196V303.818H1140.74V402H1114.6V384.166H1113.58C1111.36 389.919 1107.67 394.543 1102.52 398.037C1097.4 401.531 1091.16 403.278 1083.79 403.278C1077.23 403.278 1071.45 401.787 1066.47 398.804C1061.48 395.821 1057.58 391.581 1054.77 386.084C1052 380.587 1050.59 374.003 1050.55 366.332V303.818H1077.78V361.474C1077.82 367.27 1079.38 371.851 1082.45 375.217C1085.51 378.584 1089.63 380.267 1094.78 380.267C1098.06 380.267 1101.13 379.521 1103.99 378.03C1106.84 376.496 1109.14 374.237 1110.89 371.254C1112.68 368.271 1113.55 364.585 1113.51 360.196ZM1207.27 403.918C1197.17 403.918 1188.47 401.872 1181.19 397.781C1173.94 393.648 1168.36 387.81 1164.44 380.267C1160.52 372.682 1158.56 363.712 1158.56 353.357C1158.56 343.257 1160.52 334.393 1164.44 326.766C1168.36 319.138 1173.88 313.193 1181 308.932C1188.15 304.67 1196.55 302.54 1206.18 302.54C1212.66 302.54 1218.69 303.584 1224.27 305.672C1229.89 307.717 1234.8 310.807 1238.97 314.94C1243.19 319.074 1246.47 324.273 1248.82 330.537C1251.16 336.759 1252.33 344.045 1252.33 352.398V359.876H1169.43V343.001H1226.7C1226.7 339.081 1225.85 335.608 1224.14 332.582C1222.44 329.557 1220.07 327.192 1217.05 325.487C1214.06 323.74 1210.59 322.866 1206.63 322.866C1202.49 322.866 1198.83 323.825 1195.63 325.743C1192.48 327.618 1190.01 330.153 1188.22 333.349C1186.43 336.503 1185.51 340.018 1185.47 343.896V359.94C1185.47 364.798 1186.37 368.996 1188.15 372.533C1189.99 376.07 1192.57 378.797 1195.89 380.714C1199.21 382.632 1203.15 383.591 1207.71 383.591C1210.74 383.591 1213.51 383.165 1216.02 382.312C1218.54 381.46 1220.69 380.182 1222.48 378.477C1224.27 376.773 1225.63 374.685 1226.57 372.213L1251.76 373.875C1250.48 379.926 1247.86 385.21 1243.89 389.727C1239.97 394.202 1234.9 397.696 1228.68 400.21C1222.5 402.682 1215.36 403.918 1207.27 403.918ZM1270.1 402V303.818H1296.5V320.949H1297.52C1299.31 314.855 1302.32 310.253 1306.54 307.142C1310.75 303.989 1315.61 302.412 1321.11 302.412C1322.47 302.412 1323.94 302.497 1325.52 302.668C1327.1 302.838 1328.48 303.072 1329.67 303.371V327.533C1328.4 327.149 1326.63 326.808 1324.37 326.51C1322.11 326.212 1320.04 326.062 1318.17 326.062C1314.16 326.062 1310.58 326.936 1307.43 328.683C1304.32 330.388 1301.85 332.774 1300.02 335.842C1298.23 338.911 1297.33 342.447 1297.33 346.453V402H1270.1ZM1343.75 402V303.818H1370.98V402H1343.75ZM1347.65 291.162L1361.2 262.078H1386.39L1366.89 291.162H1347.65ZM1420.79 403.854C1414.53 403.854 1408.95 402.767 1404.05 400.594C1399.15 398.378 1395.27 395.118 1392.41 390.814C1389.6 386.467 1388.19 381.055 1388.19 374.578C1388.19 369.124 1389.2 364.543 1391.2 360.835C1393.2 357.128 1395.93 354.145 1399.38 351.886C1402.83 349.628 1406.75 347.923 1411.14 346.773C1415.57 345.622 1420.22 344.812 1425.08 344.344C1430.79 343.747 1435.39 343.193 1438.88 342.682C1442.38 342.128 1444.91 341.318 1446.49 340.253C1448.07 339.187 1448.85 337.611 1448.85 335.523V335.139C1448.85 331.091 1447.58 327.959 1445.02 325.743C1442.5 323.527 1438.93 322.419 1434.28 322.419C1429.38 322.419 1425.48 323.506 1422.58 325.679C1419.69 327.81 1417.77 330.494 1416.83 333.733L1391.65 331.688C1392.92 325.722 1395.44 320.565 1399.19 316.219C1402.94 311.83 1407.77 308.463 1413.7 306.119C1419.66 303.733 1426.57 302.54 1434.41 302.54C1439.86 302.54 1445.08 303.179 1450.07 304.457C1455.1 305.736 1459.55 307.717 1463.43 310.402C1467.35 313.087 1470.44 316.538 1472.7 320.757C1474.96 324.933 1476.08 329.94 1476.08 335.778V402H1450.26V388.385H1449.49C1447.92 391.453 1445.81 394.159 1443.17 396.503C1440.52 398.804 1437.35 400.615 1433.64 401.936C1429.93 403.214 1425.65 403.854 1420.79 403.854ZM1428.59 385.061C1432.6 385.061 1436.13 384.273 1439.2 382.696C1442.27 381.077 1444.68 378.903 1446.43 376.176C1448.17 373.449 1449.05 370.359 1449.05 366.908V356.489C1448.19 357.043 1447.02 357.554 1445.53 358.023C1444.08 358.449 1442.44 358.854 1440.61 359.237C1438.78 359.578 1436.94 359.898 1435.11 360.196C1433.28 360.452 1431.62 360.686 1430.13 360.899C1426.93 361.368 1424.14 362.114 1421.75 363.136C1419.37 364.159 1417.51 365.544 1416.19 367.291C1414.87 368.996 1414.21 371.126 1414.21 373.683C1414.21 377.391 1415.55 380.224 1418.24 382.185C1420.96 384.102 1424.42 385.061 1428.59 385.061Z" fill="black"/>
<path d="M473.375 616V470.545H536.443C547.523 470.545 556.827 472.037 564.355 475.02C571.931 478.003 577.636 482.217 581.472 487.662C585.354 493.107 587.295 499.523 587.295 506.909C587.295 512.259 586.112 517.136 583.744 521.54C581.424 525.943 578.157 529.636 573.943 532.619C569.729 535.555 564.805 537.591 559.17 538.727V540.148C565.42 540.384 571.102 541.971 576.216 544.906C581.33 547.795 585.402 551.795 588.432 556.909C591.462 561.975 592.977 567.941 592.977 574.807C592.977 582.761 590.894 589.84 586.727 596.043C582.608 602.245 576.737 607.122 569.114 610.673C561.491 614.224 552.4 616 541.841 616H473.375ZM512.864 584.466H531.33C537.958 584.466 542.93 583.235 546.244 580.773C549.559 578.263 551.216 574.57 551.216 569.693C551.216 566.284 550.435 563.396 548.872 561.028C547.31 558.661 545.084 556.862 542.196 555.631C539.355 554.4 535.922 553.784 531.898 553.784H512.864V584.466ZM512.864 529.352H529.057C532.513 529.352 535.567 528.808 538.219 527.719C540.87 526.63 542.93 525.067 544.398 523.031C545.913 520.948 546.67 518.415 546.67 515.432C546.67 510.934 545.061 507.501 541.841 505.134C538.621 502.719 534.549 501.511 529.625 501.511H512.864V529.352ZM678.276 568.273V506.909H717.48V616H680.264V595.261H679.128C676.76 602.222 672.617 607.667 666.699 611.597C660.78 615.479 653.749 617.42 645.605 617.42C637.982 617.42 631.306 615.669 625.577 612.165C619.895 608.661 615.468 603.831 612.295 597.676C609.17 591.521 607.584 584.466 607.537 576.511V506.909H646.741V568.273C646.789 573.67 648.162 577.908 650.861 580.986C653.607 584.063 657.442 585.602 662.366 585.602C665.634 585.602 668.451 584.916 670.818 583.543C673.233 582.122 675.08 580.134 676.358 577.577C677.684 574.973 678.323 571.871 678.276 568.273ZM736.852 616V470.545H776.056V525.943H776.624C778.045 522.25 780.128 518.865 782.874 515.787C785.621 512.662 789.03 510.176 793.102 508.33C797.174 506.436 801.908 505.489 807.306 505.489C814.503 505.489 821.345 507.406 827.832 511.241C834.366 515.077 839.669 521.114 843.741 529.352C847.86 537.591 849.92 548.292 849.92 561.455C849.92 574.049 847.955 584.49 844.025 592.776C840.142 601.062 834.934 607.241 828.4 611.312C821.913 615.384 814.787 617.42 807.022 617.42C801.908 617.42 797.339 616.592 793.315 614.935C789.337 613.23 785.928 610.934 783.087 608.045C780.294 605.11 778.139 601.795 776.624 598.102H775.772V616H736.852ZM775.204 561.455C775.204 566.758 775.89 571.35 777.263 575.233C778.684 579.068 780.673 582.051 783.229 584.182C785.834 586.265 788.935 587.307 792.533 587.307C796.132 587.307 799.186 586.289 801.695 584.253C804.252 582.17 806.193 579.21 807.519 575.375C808.892 571.492 809.579 566.852 809.579 561.455C809.579 556.057 808.892 551.44 807.519 547.605C806.193 543.723 804.252 540.763 801.695 538.727C799.186 536.644 796.132 535.602 792.533 535.602C788.935 535.602 785.834 536.644 783.229 538.727C780.673 540.763 778.684 543.723 777.263 547.605C775.89 551.44 775.204 556.057 775.204 561.455ZM865.758 616V470.545H904.962V525.943H905.531C906.951 522.25 909.034 518.865 911.781 515.787C914.527 512.662 917.936 510.176 922.008 508.33C926.08 506.436 930.815 505.489 936.212 505.489C943.409 505.489 950.251 507.406 956.738 511.241C963.272 515.077 968.575 521.114 972.647 529.352C976.766 537.591 978.826 548.292 978.826 561.455C978.826 574.049 976.861 584.49 972.931 592.776C969.049 601.062 963.84 607.241 957.306 611.312C950.819 615.384 943.693 617.42 935.928 617.42C930.815 617.42 926.246 616.592 922.221 614.935C918.244 613.23 914.835 610.934 911.994 608.045C909.2 605.11 907.046 601.795 905.531 598.102H904.678V616H865.758ZM904.11 561.455C904.11 566.758 904.797 571.35 906.17 575.233C907.59 579.068 909.579 582.051 912.136 584.182C914.74 586.265 917.841 587.307 921.44 587.307C925.038 587.307 928.092 586.289 930.602 584.253C933.158 582.17 935.1 579.21 936.425 575.375C937.799 571.492 938.485 566.852 938.485 561.455C938.485 556.057 937.799 551.44 936.425 547.605C935.1 543.723 933.158 540.763 930.602 538.727C928.092 536.644 925.038 535.602 921.44 535.602C917.841 535.602 914.74 536.644 912.136 538.727C909.579 540.763 907.59 543.723 906.17 547.605C904.797 551.44 904.11 556.057 904.11 561.455ZM1034.44 470.545V616H995.232V470.545H1034.44ZM1106.68 617.989C1095.04 617.989 1085 615.763 1076.57 611.312C1068.19 606.814 1061.73 600.375 1057.18 591.994C1052.68 583.566 1050.43 573.481 1050.43 561.739C1050.43 550.47 1052.71 540.621 1057.25 532.193C1061.8 523.765 1068.21 517.207 1076.5 512.52C1084.79 507.832 1094.56 505.489 1105.83 505.489C1114.07 505.489 1121.53 506.767 1128.2 509.324C1134.88 511.881 1140.59 515.598 1145.32 520.474C1150.06 525.304 1153.7 531.175 1156.26 538.088C1158.82 545.001 1160.09 552.79 1160.09 561.455V570.545H1062.65V548.955H1124.01C1123.97 545.83 1123.16 543.083 1121.6 540.716C1120.08 538.301 1118.02 536.431 1115.42 535.105C1112.86 533.732 1109.95 533.045 1106.68 533.045C1103.51 533.045 1100.6 533.732 1097.95 535.105C1095.3 536.431 1093.17 538.277 1091.56 540.645C1089.99 543.012 1089.17 545.782 1089.07 548.955V572.25C1089.07 575.754 1089.8 578.879 1091.27 581.625C1092.74 584.371 1094.85 586.526 1097.59 588.088C1100.34 589.651 1103.65 590.432 1107.54 590.432C1110.24 590.432 1112.7 590.053 1114.92 589.295C1117.2 588.538 1119.14 587.449 1120.75 586.028C1122.36 584.561 1123.54 582.809 1124.3 580.773H1160.09C1158.86 588.348 1155.95 594.93 1151.36 600.517C1146.77 606.057 1140.68 610.366 1133.11 613.443C1125.58 616.473 1116.77 617.989 1106.68 617.989ZM1211.39 502.364V470.545H1337.81V502.364H1294.06V616H1255.14V502.364H1211.39ZM1389.69 617.989C1378.04 617.989 1368.01 615.763 1359.58 611.312C1351.2 606.814 1344.74 600.375 1340.19 591.994C1335.69 583.566 1333.44 573.481 1333.44 561.739C1333.44 550.47 1335.72 540.621 1340.26 532.193C1344.81 523.765 1351.22 517.207 1359.51 512.52C1367.79 507.832 1377.57 505.489 1388.84 505.489C1397.08 505.489 1404.54 506.767 1411.21 509.324C1417.89 511.881 1423.59 515.598 1428.33 520.474C1433.06 525.304 1436.71 531.175 1439.27 538.088C1441.82 545.001 1443.1 552.79 1443.1 561.455V570.545H1345.66V548.955H1407.02C1406.97 545.83 1406.17 543.083 1404.61 540.716C1403.09 538.301 1401.03 536.431 1398.43 535.105C1395.87 533.732 1392.96 533.045 1389.69 533.045C1386.52 533.045 1383.61 533.732 1380.96 535.105C1378.31 536.431 1376.17 538.277 1374.56 540.645C1373 543.012 1372.17 545.782 1372.08 548.955V572.25C1372.08 575.754 1372.81 578.879 1374.28 581.625C1375.75 584.371 1377.86 586.526 1380.6 588.088C1383.35 589.651 1386.66 590.432 1390.54 590.432C1393.24 590.432 1395.71 590.053 1397.93 589.295C1400.2 588.538 1402.15 587.449 1403.75 586.028C1405.36 584.561 1406.55 582.809 1407.31 580.773H1443.1C1441.87 588.348 1438.96 594.93 1434.37 600.517C1429.77 606.057 1423.69 610.366 1416.11 613.443C1408.58 616.473 1399.78 617.989 1389.69 617.989ZM1489.5 617.705C1482.54 617.705 1476.38 616.568 1471.03 614.295C1465.73 611.975 1461.56 608.472 1458.53 603.784C1455.5 599.097 1453.99 593.131 1453.99 585.886C1453.99 579.92 1455 574.83 1457.04 570.616C1459.08 566.355 1461.92 562.875 1465.56 560.176C1469.21 557.477 1473.45 555.418 1478.28 553.997C1483.15 552.577 1488.41 551.653 1494.04 551.227C1500.15 550.754 1505.05 550.186 1508.74 549.523C1512.48 548.812 1515.18 547.842 1516.84 546.611C1518.5 545.332 1519.33 543.652 1519.33 541.568V541.284C1519.33 538.443 1518.24 536.265 1516.06 534.75C1513.88 533.235 1511.09 532.477 1507.68 532.477C1503.94 532.477 1500.88 533.306 1498.52 534.963C1496.2 536.573 1494.8 539.059 1494.33 542.42H1458.25C1458.72 535.792 1460.83 529.684 1464.57 524.097C1468.36 518.462 1473.87 513.964 1481.12 510.602C1488.36 507.193 1497.4 505.489 1508.25 505.489C1516.06 505.489 1523.07 506.412 1529.27 508.259C1535.47 510.058 1540.75 512.591 1545.11 515.858C1549.46 519.078 1552.78 522.866 1555.05 527.222C1557.37 531.53 1558.53 536.218 1558.53 541.284V616H1521.88V600.659H1521.03C1518.85 604.731 1516.2 608.022 1513.08 610.531C1510 613.041 1506.47 614.864 1502.49 616C1498.56 617.136 1494.23 617.705 1489.5 617.705ZM1502.28 592.989C1505.26 592.989 1508.06 592.373 1510.66 591.142C1513.31 589.911 1515.47 588.135 1517.12 585.815C1518.78 583.495 1519.61 580.678 1519.61 577.364V568.273C1518.57 568.699 1517.46 569.101 1516.27 569.48C1515.14 569.859 1513.91 570.214 1512.58 570.545C1511.3 570.877 1509.93 571.185 1508.46 571.469C1507.04 571.753 1505.55 572.013 1503.99 572.25C1500.96 572.723 1498.47 573.505 1496.53 574.594C1494.63 575.635 1493.21 576.938 1492.27 578.5C1491.37 580.015 1490.92 581.72 1490.92 583.614C1490.92 586.644 1491.98 588.964 1494.11 590.574C1496.24 592.184 1498.97 592.989 1502.28 592.989Z" fill="#9D4EDD"/>
<path d="M335.508 70.017C334.239 70.5737 331.758 71.9344 330.028 72.9859C328.297 74.0374 324.259 76.3878 321.087 78.1815C317.914 79.9752 312.607 83.0678 309.261 84.9852C301.877 89.3148 296.224 92.5311 289.36 96.4278C286.533 98.0359 282.784 100.139 281.168 101.129C275.458 104.469 272.054 106.448 268.016 108.798C261.902 112.324 259.94 114.612 259.017 119.004C258.787 120.179 258.152 122.962 257.633 125.189C256.768 129.147 255.845 133.415 252.153 150.857C251.114 155.62 250.191 159.888 250.076 160.259C249.903 160.877 243.442 161.063 220.311 161.063C189.853 161.063 181.777 161.558 173.124 163.846C151.665 169.475 132.86 183.515 120.919 202.813C116.65 209.679 113.016 217.719 110.536 225.574C108.113 233.306 107.536 236.522 106.613 246.418L105.921 253.531L93.9223 253.717C82.2122 253.841 81.8661 253.903 79.7317 255.449C76.9052 257.428 76.213 259.16 76.213 264.108C76.213 274.685 82.2122 286.127 91.0957 292.374C96.0567 295.9 100.441 297.446 107.651 298.374C115.208 299.302 370.754 298.869 375.599 297.941C391.059 294.848 402.884 280.375 402.942 264.232C403 259.346 402.884 258.727 401.557 257.243C398.731 254.026 397.923 253.841 385.117 253.841H373.292V251.181C373.234 248.769 372.196 240.666 371.1 234.048C370.35 229.842 366.658 218.833 364.408 213.946C359.216 202.999 355.64 197.679 347.103 188.587C339.488 180.423 333.547 175.846 324.49 171.021C311.049 163.908 298.589 161.125 280.303 161.063C272.227 161.063 271.766 161.001 271.766 159.826C271.766 159.207 271.996 158.032 272.285 157.228C272.573 156.424 273.381 153.022 274.073 149.62C274.765 146.219 275.573 142.446 275.804 141.27C276.092 140.095 276.611 137.683 276.957 136.013C278.746 127.539 277.823 128.529 289.36 122.096C293.167 119.931 296.57 118.014 296.859 117.767C297.205 117.519 300.435 115.664 304.069 113.623C307.704 111.581 311.857 109.169 313.299 108.365C318.779 105.087 322.413 102.984 326.855 100.448C329.393 99.0256 333.027 96.9226 334.931 95.8093C336.835 94.6959 339.834 92.9641 341.622 91.9126C346.814 88.9437 347.622 88.2633 349.006 85.5419C350.102 83.5007 350.275 82.3256 350.102 79.4185C349.583 71.4396 342.43 66.8626 335.508 70.017ZM245.807 178.876C245.807 179.928 244.365 187.288 242.231 196.628C241.942 197.989 241.481 200.215 241.193 201.576C240.962 202.937 240.154 206.524 239.462 209.617C238.827 212.647 238.02 216.297 237.731 217.657C237.443 219.018 236.982 221.245 236.693 222.606C235.655 227.183 234.79 231.265 234.27 234.048C233.982 235.594 233.174 239.182 232.54 242.089C231.848 244.996 231.098 248.46 230.867 249.82C230.636 251.243 230.232 252.666 230.002 253.098C229.713 253.655 217.311 253.841 175.605 253.841H121.611L121.957 247.965C123.284 226.193 135.398 204.05 152.819 191.432C157.837 187.783 165.798 183.577 171.22 181.783C175.374 180.361 177.22 179.928 185.815 178.443C187.545 178.134 201.794 177.887 217.426 177.825C244.077 177.763 245.807 177.825 245.807 178.876ZM294.263 178.629C300.205 179.495 306.665 180.979 308.973 182.031C309.607 182.34 311.684 183.206 313.587 184.01C329.912 190.752 345.949 208.194 352.467 226.317C353.217 228.358 354.025 230.584 354.256 231.265C355.294 233.863 357.082 244.439 357.255 248.893L357.428 253.531L304.819 253.717L252.153 253.841V252.604C252.153 251.861 252.557 249.573 253.018 247.47C253.48 245.367 254.633 239.862 255.614 235.285C256.595 230.708 257.748 225.265 258.21 223.224C258.671 221.183 259.536 216.977 260.229 213.946C260.863 210.854 261.613 207.39 261.902 206.215C262.19 205.04 262.998 201.267 263.69 197.865C264.382 194.463 265.19 190.814 265.42 189.824C265.709 188.773 266.228 186.422 266.574 184.567C266.92 182.711 267.497 180.423 267.843 179.433L268.42 177.763H278.342C283.764 177.763 290.917 178.134 294.263 178.629ZM385.117 271.716C385.117 274.19 379.695 279.138 375.08 280.87C373.407 281.488 345.718 281.674 239.75 281.674C110.709 281.674 106.382 281.612 103.498 280.499C98.7679 278.643 94.0954 274.19 94.0954 271.53C94.0954 270.603 106.613 270.541 239.635 270.664C361.466 270.85 385.117 270.974 385.117 271.716Z" fill="black"/>
<path d="M117.343 311.363C113.824 313.652 113.189 316.62 114.285 325.589C114.574 328.125 115.381 335.794 116.016 342.598C116.65 349.402 117.4 357.319 117.746 360.226C118.035 363.133 118.842 371.05 119.477 377.854C121.092 395.358 122.303 407.233 122.996 413.728C123.342 416.82 123.688 421.397 123.746 423.872C123.803 428.325 123.746 428.449 122.073 429.438C116.477 432.778 103.729 435.685 94.5569 435.685C84.6927 435.685 79.501 434.139 73.5018 429.314C70.3291 426.779 68.4255 426.531 67.3295 428.387C66.4642 429.871 68.7716 432.345 75.9245 437.479C90.4612 447.87 105.517 455.911 120.631 461.354C124.265 462.653 127.38 463.828 127.495 463.952C127.841 464.199 128.591 470.199 129.283 478.363C129.572 481.95 130.379 490.115 131.014 496.609C131.706 503.042 132.456 511.021 132.744 514.237C133.264 520.051 133.898 526.484 135.11 538.174C135.456 541.514 135.917 546.709 136.206 549.802C137.302 562.976 138.571 575.409 139.09 578.625C139.378 580.48 139.667 583.387 139.667 585.119C139.724 588.336 140.993 598.479 141.859 602.067C144.858 614.561 155.415 626.684 167.067 631.013C174.22 633.673 174.682 633.673 241.481 633.487C300.435 633.302 305.8 633.178 308.973 632.189C319.529 628.91 329.047 620.684 334.008 610.726C337.123 604.417 338.277 599.222 339.257 586.913C339.546 583.511 340.007 578.377 340.353 575.47C340.642 572.563 341.334 565.76 341.853 560.317C342.372 554.874 343.18 546.771 343.584 542.38C344.045 537.926 344.853 530.009 345.314 524.752C345.834 519.494 346.468 512.814 346.814 509.907C347.16 507 347.622 501.99 347.91 498.774C348.776 488.321 350.218 473.848 350.852 468.776L351.544 463.828L357.544 461.725C371.042 457.024 387.598 448.303 401.269 438.716C409.46 433.026 412.229 430.242 411.652 428.325C411.076 426.346 408.883 426.717 405.768 429.253C403.288 431.294 401.673 432.222 397.808 433.892C393.308 435.809 380.675 436.242 373.58 434.757C362.966 432.469 355.698 429.809 355.006 427.954C354.89 427.459 355.179 423.067 355.698 418.243C356.217 413.357 356.909 406.862 357.14 403.832C357.774 396.595 358.697 387.441 359.447 379.709C359.851 376.307 360.313 370.988 360.601 367.957C361.236 360.968 362.216 351.072 362.966 343.835C363.658 337.526 364.466 328.187 364.985 320.95C365.273 316.435 365.216 315.816 363.947 313.837C363.197 312.662 361.928 311.363 361.178 310.93C360.024 310.312 334.527 310.126 239.462 310.126C121.207 310.126 119.131 310.126 117.343 311.363ZM348.833 329.547C348.602 331.094 348.199 335.176 347.91 338.702C347.622 342.227 347.16 347.423 346.814 350.33C346.468 353.237 345.834 359.917 345.314 365.174C344.853 370.432 344.045 378.349 343.584 382.802C343.122 387.193 342.315 395.543 341.796 401.357C341.276 407.11 340.7 413.233 340.469 414.841L340.123 417.872L334.066 413.542C324.375 406.615 314.164 401.667 306.665 400.306C292.244 397.708 282.034 398.327 270.381 402.409C260.286 405.934 252.73 411.006 244.827 419.418L239.52 425.047L234.155 419.294C224.579 409.089 213.215 402.656 199.659 399.873C189.161 397.708 174.97 398.76 164.875 402.471C158.76 404.759 152.3 408.347 145.666 413.109C139.551 417.563 138.513 417.624 138.513 413.48C138.513 412.243 138.109 407.357 137.59 402.594C137.129 397.832 136.494 391.276 136.206 388.059C135.917 384.843 135.456 379.462 135.11 376.122C133.84 363.813 133.264 357.937 132.744 352.185C132.456 348.969 131.821 342.413 131.36 337.65C130.841 332.887 130.437 328.496 130.437 327.877C130.437 326.888 136.033 326.826 239.808 326.826H349.179L348.833 329.547ZM242.346 452.694C247.653 457.457 254.922 461.292 265.132 464.756C273.612 467.601 275.861 468.157 282.149 469.085C284.86 469.456 288.321 470.013 289.821 470.384C293.398 471.126 317.222 471.126 320.394 470.384C323.971 469.518 334.585 468.219 334.931 468.59C335.219 468.9 334.066 483.311 332.912 492.898C332.624 495.62 332.22 499.64 332.047 501.867C331.874 504.093 331.47 508.237 331.124 511.144C330.835 514.052 330.316 519.185 330.028 522.587C328.816 535.947 328.297 540.772 327.72 546.4C327.317 549.616 326.797 554.936 326.509 558.152C325.874 565.76 325.009 574.976 324.259 581.965C323.913 584.996 323.509 589.449 323.336 591.861C322.99 596.376 322.933 596.809 320.856 601.696C318.375 607.572 313.53 612.396 307.531 614.994L304.358 616.293L238.885 616.169L173.413 615.983L169.951 614.128C163.894 610.912 159.049 604.726 156.857 597.428C156.511 596.376 156.049 593.036 155.819 590.006C155.357 584.81 155.069 582.089 153.453 566.316C153.107 563.038 152.646 557.657 152.357 554.441C151.896 548.874 151.319 543.246 149.992 530.628C149.704 527.535 149.185 522.402 148.896 519.185C148.608 515.969 148.089 510.402 147.743 506.815C146.416 493.455 145.897 488.445 145.435 483.002C145.204 479.909 144.801 475.394 144.512 472.858L144.108 468.281L147.512 468.714C149.358 469.023 152.588 469.456 154.665 469.827C160.953 470.817 183.738 471.188 189.276 470.322C202.486 468.343 204.332 467.91 214.138 464.694C222.676 461.91 230.117 458.014 235.424 453.684C237.501 451.952 239.347 450.592 239.577 450.53C239.75 450.53 241.02 451.519 242.346 452.694Z" fill="black"/>
<path d="M189.564 518.443C187.372 519.927 186.68 520.855 185.873 523.577C185.296 525.432 185.353 526.298 186.161 528.401C187.488 531.989 189.564 533.411 193.545 533.411C196.429 533.411 196.948 533.226 199.082 531.061C201.217 528.834 201.39 528.401 201.39 525.494C201.39 522.587 201.159 522.03 199.082 519.804C197.063 517.639 196.487 517.33 194.064 517.33C192.391 517.33 190.603 517.763 189.564 518.443Z" fill="black"/>
<path d="M243.846 518.567C240.846 520.175 240.154 520.917 238.827 523.577C237.443 526.546 237.443 528.463 238.885 531.741C240.616 535.7 243.5 537.432 248.172 537.432C251.403 537.432 252.268 537.184 253.999 535.762C257.921 532.545 258.902 527.721 256.652 522.896C254.287 518.01 248.576 516.093 243.846 518.567Z" fill="black"/>
<path d="M278.4 525.865C275.746 526.298 274.189 527.411 273.035 529.638C271.42 532.669 271.477 534.339 273.092 537.431C276.15 543.184 283.707 543.617 286.764 538.174C290.225 532.174 285.091 524.628 278.4 525.865Z" fill="black"/>
<path d="M215.869 534.215C212.927 535.205 209.696 538.854 208.889 542.009C206.408 552.029 218.638 559.946 225.964 553.018C228.675 550.482 229.656 548.256 229.656 544.668C229.656 539.534 227.06 535.823 222.214 534.092C219.907 533.287 218.522 533.287 215.869 534.215Z" fill="black"/>
<path d="M305.973 537.37C301.82 539.473 300.031 542.441 300.031 547.328C300.031 552.214 301.82 555.183 305.973 557.286C309.78 559.141 311.222 559.141 314.857 557.224C318.837 555.059 320.798 551.843 320.798 547.513C320.798 542.503 318.664 539.225 314.164 537.122C310.703 535.514 309.607 535.576 305.973 537.37Z" fill="black"/>
<path d="M173.701 544.916C166.144 548.441 164.471 558.09 170.355 564.152C177.739 571.759 189.622 564.399 187.834 553.327C187.142 548.689 181.835 543.926 177.45 543.988C176.528 543.988 174.797 544.421 173.701 544.916Z" fill="black"/>
<path d="M244.365 553.946C240.097 556.42 238.481 560.997 240.327 565.203C242.923 571.017 249.557 572.069 253.999 567.306C255.902 565.265 256.191 564.584 256.191 562.172C256.191 558.585 255.037 556.173 252.557 554.503C250.365 553.08 246.269 552.771 244.365 553.946Z" fill="black"/>
<path d="M271.362 556.977C268.882 557.781 264.844 562.729 264.728 565.203C264.497 570.337 265.363 572.873 268.132 575.532C271.247 578.439 275.227 579.305 278.746 577.697C283.418 575.594 285.61 572.254 285.61 567.306C285.61 559.574 278.803 554.688 271.362 556.977Z" fill="black"/>
<path d="M215.35 571.017C213.158 571.759 209.985 574.914 208.831 577.573C206.293 583.511 208.716 590.748 214.369 593.84C218.465 596.129 225.271 594.335 228.098 590.191C229.944 587.47 231.04 583.387 230.579 581.223C228.675 573.12 222.387 568.852 215.35 571.017Z" fill="black"/>
<path d="M292.186 578.439C288.206 579.8 285.61 583.82 285.61 588.769C285.61 595.263 289.129 599.098 295.417 599.469C298.762 599.654 299.455 599.469 301.82 597.861C304.646 595.882 306.954 591.737 306.954 588.645C306.954 587.655 306.146 585.429 305.223 583.697C303.896 581.223 302.858 580.171 300.897 579.182C298.416 577.944 294.667 577.635 292.186 578.439Z" fill="black"/>
<path d="M248.807 583.449C244.827 584.934 242.635 587.222 241.193 591.49C240.097 594.521 240.039 595.201 240.731 597.923C242.865 606.891 253.826 610.355 260.344 604.046C264.151 600.335 265.42 596.314 264.209 591.737C263.344 588.274 259.363 583.82 256.652 583.264C255.614 583.078 254.114 582.769 253.307 582.583C252.499 582.46 250.48 582.831 248.807 583.449Z" fill="black"/>
<path d="M180.335 584.686C175.605 587.655 173.643 594.645 176.008 599.902C180.277 609.365 193.141 608.19 195.679 598.17C196.948 592.975 195.275 588.088 191.122 585.305C188.988 583.882 187.892 583.511 185.296 583.573C183.334 583.573 181.373 584.006 180.335 584.686Z" fill="black"/>
</g>
<defs>
<clipPath id="clip0_2002_3">
<rect width="1622" height="733" fill="white"/>
</clipPath>
</defs>
</svg>
